<?xml version="1.0" encoding="UTF-8"?><svg id="Capa_2" xmlns="http://www.w3.org/2000/svg" viewBox="0 0 95.86 95.66"><defs><style>.cls-1{fill:#fff;}</style></defs><g id="Capa_1-2"><path class="cls-1" d="m95.85,47.79s.01.06,0,.08c0,.23-.01.46-.04.68-.01.21-.04.42-.09.63-.02.1-.04.2-.07.3-.02.12-.05.24-.09.35,0,.04-.01.07-.03.09t-.01.02c-.09.27-.19.54-.3.8-.18.38-.39.75-.63,1.1-.06.12-.14.23-.25.34-.09.11-.18.22-.27.32-.07.11-.17.21-.27.31l-.11.11-40.69,40.68c-1.37,1.37-3.17,2.06-4.98,2.06s-3.61-.69-4.98-2.06c-2.74-2.74-2.74-7.23,0-9.97l28.75-28.75H7.05c-3.87,0-7.05-3.17-7.05-7.05,0-1.93.79-3.69,2.07-4.97,1.28-1.28,3.04-2.07,4.98-2.07h64.75l-28.76-28.76c-2.74-2.74-2.74-7.22,0-9.97,1.37-1.37,3.17-2.06,4.98-2.06s3.61.69,4.98,2.06l40.8,40.8c.21.21.4.43.58.65.1.12.19.24.27.37.07.1.37.65.45.82.03.05.06.11.09.17.03.07.06.14.09.22.01.03.03.07.05.11.02.03.03.06.04.1.02.04.03.08.04.12.05.11.3.99.31,1.06.05.21.08.42.09.63.03.23.04.45.04.68Z"/></g></svg>