<?xml version="1.0" encoding="UTF-8"?><svg id="Capa_2" xmlns="http://www.w3.org/2000/svg" viewBox="0 0 196.66 185.23"><defs><style>.cls-1{fill:#ef27db;}</style></defs><g id="Capa_1-2"><path class="cls-1" d="m193.49,88.03l-54.58-27.55c-3.84-1.94-8.37.85-8.37,5.15v55.1c0,4.3,4.53,7.09,8.37,5.15l54.58-27.55c4.23-2.13,4.23-8.17,0-10.3Z"/><path class="cls-1" d="m3.17,98.34l54.58,27.55c3.84,1.94,8.37-.85,8.37-5.15v-55.1c0-4.3-4.53-7.09-8.37-5.15L3.17,88.03c-4.23,2.13-4.23,8.17,0,10.3Z"/><rect class="cls-1" x="89.31" y="51.7" width="18.05" height="81.83" rx="9.02" ry="9.02" transform="translate(52.27 -34.37) rotate(26.78)"/><path class="cls-1" d="m168.02,36.06c0,6.13-4.96,11.1-11.09,11.1-3.35,0-6.35-1.48-8.39-3.83-12.71-12.65-30.92-21.12-50.26-21.14h-.06c-19.34.02-37.55,8.49-50.26,21.14-2.04,2.35-5.04,3.83-8.39,3.83-6.13,0-11.09-4.97-11.09-11.1,0-2.21.64-4.27,1.76-5.99.06-.1.12-.2.18-.29.22-.34.5-.69.81-1.04.01,0,.01-.01.01-.01.21-.24.43-.48.68-.72C48.55,12.06,73.36.02,98.22,0h.06c24.86.02,49.67,12.06,66.3,28.01.25.24.47.48.68.72,0,0,0,.01.01.01.31.35.59.7.81,1.04.06.09.12.19.18.29,1.12,1.72,1.76,3.78,1.76,5.99Z"/><path class="cls-1" d="m28.53,149.17c0-6.13,4.96-11.1,11.09-11.1,3.35,0,6.35,1.48,8.39,3.83,12.71,12.65,30.92,21.12,50.26,21.14h.06c19.34-.02,37.55-8.49,50.26-21.14,2.04-2.35,5.04-3.83,8.39-3.83,6.13,0,11.09,4.97,11.09,11.1,0,2.21-.64,4.27-1.76,5.99-.06.1-.12.2-.18.29-.22.34-.5.69-.81,1.04-.01,0-.01.01-.01.01-.21.24-.43.48-.68.72-16.63,15.95-41.44,27.99-66.3,28.01h-.06c-24.86-.02-49.67-12.06-66.3-28.01-.25-.24-.47-.48-.68-.72,0,0,0-.01-.01-.01-.31-.35-.59-.7-.81-1.04-.06-.09-.12-.19-.18-.29-1.12-1.72-1.76-3.78-1.76-5.99Z"/></g></svg>