<?xml version="1.0" encoding="UTF-8"?><svg id="Capa_2" xmlns="http://www.w3.org/2000/svg" viewBox="0 0 98.26 111.13"><defs><style>.cls-1{fill:#ef27db;}</style></defs><g id="Capa_1-2"><path class="cls-1" d="m69.25,17.17l-4.92,8.51c14.2,5.95,24.17,19.97,24.17,36.33,0,21.74-17.62,39.36-39.37,39.36S9.77,83.75,9.77,62.01c0-16.36,9.97-30.38,24.16-36.33l-4.91-8.51C11.91,24.85,0,42.04,0,62.01c0,27.12,22,49.13,49.13,49.13s49.14-22,49.14-49.13c0-19.97-11.91-37.16-29.01-44.84Z"/><circle class="cls-1" cx="49.13" cy="62" r="16.98"/><path class="cls-1" d="m54.13,33.52l14.36-24.87c2.22-3.85-.56-8.65-5-8.65h-28.71c-4.44,0-7.22,4.81-5,8.65l14.36,24.87c2.22,3.85,7.77,3.85,9.99,0Z"/></g></svg>