<?xml version="1.0" encoding="UTF-8"?><svg id="Capa_2" xmlns="http://www.w3.org/2000/svg" viewBox="0 0 594.31 90.02"><defs><style>.cls-1{fill:#fff;}</style></defs><g id="Capa_1-2"><path class="cls-1" d="m0,1.73h40.93c28.69,0,48.35,16.69,48.35,43.28s-19.66,43.28-48.35,43.28H0V1.73Zm39.94,67.02c14.72,0,24.61-8.78,24.61-23.74s-9.89-23.74-24.61-23.74h-15.46v47.48h15.46Z"/><path class="cls-1" d="m102.14,1.73h24.48v86.56h-24.48V1.73Z"/><path class="cls-1" d="m231.61,1.73l-37.1,86.56h-24.11L133.43,1.73h26.46l23.5,56.39L207.38,1.73h24.24Z"/><path class="cls-1" d="m310.51,68.88v19.41h-77.53v-15.33l43.65-51.81h-42.54V1.73h74.57v15.33l-43.65,51.81h45.51Z"/><path class="cls-1" d="m316.08,45.01c0-25.97,20.4-45.01,48.1-45.01s48.1,19.04,48.1,45.01-20.4,45.01-48.1,45.01-48.1-19.04-48.1-45.01Zm71.47,0c0-14.96-10.26-24.73-23.37-24.73s-23.37,9.77-23.37,24.73,10.26,24.73,23.37,24.73,23.37-9.77,23.37-24.73Z"/><path class="cls-1" d="m507.5,1.73v86.56h-20.16l-38.21-46.12v46.12h-23.99V1.73h20.16l38.21,46.12V1.73h23.99Z"/><path class="cls-1" d="m594.31,69.37v18.92h-69.5V1.73h67.89v18.92h-43.65v14.59h38.46v18.3h-38.46v15.83h45.26Z"/></g></svg>