<?xml version="1.0" encoding="UTF-8"?><svg id="Capa_2" xmlns="http://www.w3.org/2000/svg" viewBox="0 0 732.03 111.13"><defs><style>.cls-1{fill:#fff;}.cls-2{fill:#ef27db;}</style></defs><g id="Capa_1-2"><path class="cls-2" d="m703.02,17.17l-4.92,8.51c14.2,5.95,24.17,19.97,24.17,36.33,0,21.74-17.62,39.36-39.37,39.36s-39.36-17.62-39.36-39.36c0-16.36,9.97-30.38,24.16-36.33l-4.91-8.51c-17.1,7.68-29.01,24.87-29.01,44.84,0,27.12,22,49.13,49.13,49.13s49.14-22,49.14-49.13c0-19.97-11.91-37.16-29.01-44.84Z"/><circle class="cls-2" cx="682.9" cy="62" r="16.98"/><path class="cls-2" d="m687.89,33.52l14.36-24.87c2.22-3.85-.56-8.65-5-8.65h-28.71c-4.44,0-7.22,4.81-5,8.65l14.36,24.87c2.22,3.85,7.77,3.85,9.99,0Z"/><path class="cls-1" d="m0,13.2h40.93c28.69,0,48.35,16.69,48.35,43.28s-19.66,43.28-48.35,43.28H0V13.2Zm39.94,67.02c14.72,0,24.61-8.78,24.61-23.74s-9.89-23.74-24.61-23.74h-15.46v47.48h15.46Z"/><path class="cls-1" d="m102.14,13.2h24.48v86.56h-24.48V13.2Z"/><path class="cls-1" d="m231.61,13.2l-37.1,86.56h-24.11L133.43,13.2h26.46l23.5,56.39,23.99-56.39h24.24Z"/><path class="cls-1" d="m310.51,80.35v19.41h-77.53v-15.33l43.65-51.81h-42.54V13.2h74.57v15.33l-43.65,51.81h45.51Z"/><path class="cls-1" d="m316.08,56.48c0-25.97,20.4-45.01,48.1-45.01s48.1,19.04,48.1,45.01-20.4,45.01-48.1,45.01-48.1-19.04-48.1-45.01Zm71.47,0c0-14.96-10.26-24.73-23.37-24.73s-23.37,9.77-23.37,24.73,10.26,24.73,23.37,24.73,23.37-9.77,23.37-24.73Z"/><path class="cls-1" d="m507.5,13.2v86.56h-20.16l-38.21-46.12v46.12h-23.99V13.2h20.16l38.21,46.12V13.2h23.99Z"/><path class="cls-1" d="m594.31,80.84v18.92h-69.5V13.2h67.89v18.92h-43.65v14.59h38.46v18.3h-38.46v15.83h45.26Z"/></g></svg>