<?xml version="1.0" encoding="UTF-8"?><svg id="Capa_2" xmlns="http://www.w3.org/2000/svg" viewBox="0 0 802.09 151.5"><defs><style>.cls-1{fill:#fff;}.cls-2{fill:#ef27db;}</style></defs><g id="Capa_1-2"><path class="cls-1" d="m207.78,24.61h40.93c28.69,0,48.35,16.69,48.35,43.28s-19.66,43.28-48.35,43.28h-40.93V24.61Zm39.94,67.02c14.72,0,24.61-8.78,24.61-23.74s-9.89-23.74-24.61-23.74h-15.46v47.48h15.46Z"/><path class="cls-1" d="m309.92,24.61h24.48v86.56h-24.48V24.61Z"/><path class="cls-1" d="m439.39,24.61l-37.1,86.56h-24.11l-36.97-86.56h26.46l23.5,56.39,23.99-56.39h24.24Z"/><path class="cls-1" d="m518.29,91.75v19.41h-77.53v-15.33l43.65-51.81h-42.54v-19.41h74.57v15.33l-43.65,51.81h45.51Z"/><path class="cls-1" d="m523.85,67.89c0-25.97,20.4-45.01,48.1-45.01s48.1,19.04,48.1,45.01-20.4,45.01-48.1,45.01-48.1-19.04-48.1-45.01Zm71.47,0c0-14.96-10.26-24.73-23.37-24.73s-23.37,9.77-23.37,24.73,10.26,24.73,23.37,24.73,23.37-9.77,23.37-24.73Z"/><path class="cls-1" d="m715.28,24.61v86.56h-20.16l-38.21-46.12v46.12h-23.99V24.61h20.16l38.21,46.12V24.61h23.99Z"/><path class="cls-1" d="m802.09,92.25v18.92h-69.5V24.61h67.89v18.92h-43.65v14.59h38.46v18.3h-38.46v15.83h45.26Z"/><path class="cls-2" d="m155.12,71.07l-41.26-20.82c-3.84-1.94-8.37.85-8.37,5.15v41.65c0,4.3,4.53,7.09,8.37,5.15l41.26-20.82c4.23-2.13,4.23-8.17,0-10.3Z"/><path class="cls-2" d="m3.17,81.37l41.26,20.82c3.84,1.94,8.37-.85,8.37-5.15v-41.65c0-4.3-4.53-7.09-8.37-5.15L3.17,71.07c-4.23,2.13-4.23,8.17,0,10.3Z"/><rect class="cls-2" x="71.76" y="42.29" width="14.76" height="66.93" rx="7.38" ry="7.38" transform="translate(42.62 -27.53) rotate(26.78)"/><path class="cls-2" d="m136.14,29.49c0,5.01-4.06,9.08-9.07,9.08-2.74,0-5.19-1.21-6.86-3.13-10.4-10.35-25.29-17.27-41.11-17.29h-.05c-15.82.02-30.71,6.94-41.11,17.29-1.67,1.92-4.12,3.13-6.86,3.13-5.01,0-9.07-4.06-9.07-9.08,0-1.81.52-3.49,1.44-4.9.05-.08.1-.16.15-.24.18-.28.41-.56.66-.85,0,0,0,0,0,0,.17-.2.35-.39.56-.59C38.43,9.86,58.72.02,79.05,0h.05c20.33.02,40.63,9.86,54.23,22.91.2.2.38.39.56.59,0,0,0,0,0,0,.25.29.48.57.66.85.05.07.1.16.15.24.92,1.41,1.44,3.09,1.44,4.9Z"/><path class="cls-2" d="m22.05,122c0-5.01,4.06-9.08,9.07-9.08,2.74,0,5.19,1.21,6.86,3.13,10.4,10.35,25.29,17.27,41.11,17.29h.05c15.82-.02,30.71-6.94,41.11-17.29,1.67-1.92,4.12-3.13,6.86-3.13,5.01,0,9.07,4.06,9.07,9.08,0,1.81-.52,3.49-1.44,4.9-.05.08-.1.16-.15.24-.18.28-.41.56-.66.85,0,0,0,0,0,0-.17.2-.35.39-.56.59-13.6,13.05-33.89,22.89-54.23,22.91h-.05c-20.33-.02-40.63-9.86-54.23-22.91-.2-.2-.38-.39-.56-.59,0,0,0,0,0,0-.25-.29-.48-.57-.66-.85-.05-.07-.1-.16-.15-.24-.92-1.41-1.44-3.09-1.44-4.9Z"/></g></svg>